<?xml version="1.0" encoding="UTF-8"?>
<svg width="38px" height="38px" viewBox="0 0 38 38" version="1.1" xmlns="http://www.w3.org/2000/svg" xmlns:xlink="http://www.w3.org/1999/xlink">
    <!-- Generator: Sketch 51.1 (57501) - http://www.bohemiancoding.com/sketch -->
    <title>logo</title>
    <desc>Created with Sketch.</desc>
    <defs>
        <rect id="path-1" x="0" y="0" width="9" height="11"></rect>
    </defs>
    <g id="logo" stroke="none" stroke-width="1" fill="none" fill-rule="evenodd">
        <path d="M28.3076923,16.0769231 C28.3076923,9.33361951 22.8202266,3.84615385 16.0769231,3.84615385 C9.33361951,3.84615385 3.84615385,9.33361951 3.84615385,16.0769231 C3.84615385,22.8202266 9.33361951,28.3076923 16.0769231,28.3076923 C22.8202266,28.3076923 28.3076923,22.8202266 28.3076923,16.0769231 Z M38,35.0769231 C38,36.6754808 36.6754808,38 35.0769231,38 C34.3004808,38 33.546875,37.6802885 33.0216346,37.1322115 L25.1887019,29.3221154 C22.5168269,31.171875 19.3197115,32.1538462 16.0769231,32.1538462 C7.19350962,32.1538462 0,24.9603365 0,16.0769231 C0,7.19350962 7.19350962,0 16.0769231,0 C24.9603365,0 32.1538462,7.19350962 32.1538462,16.0769231 C32.1538462,19.3197115 31.171875,22.5168269 29.3221154,25.1887019 L37.1550481,33.0216346 C37.6802885,33.546875 38,34.3004808 38,35.0769231 Z" id="search" fill="#888888" transform="translate(19.000000, 19.000000) scale(-1, 1) translate(-19.000000, -19.000000) "></path>
        <g id="Group" transform="translate(11.000000, 5.000000)">
            <mask id="mask-2" fill="white">
                <use xlink:href="#path-1"></use>
            </mask>
            <g id="Rectangle"></g>
            <path d="M2.83029443,12.0769231 C2.83029443,17.0901313 6.90986872,21.1697056 11.9230769,21.1697056 C16.9362851,21.1697056 21.0158594,17.0901313 21.0158594,12.0769231 C21.0158594,7.06371487 16.9362851,2.98414058 11.9230769,2.98414058 C6.90986872,2.98414058 2.83029443,7.06371487 2.83029443,12.0769231 Z M11.9230769,23.1256009 C5.23073741,23.1256009 0.874399058,17.9890726 0.874399058,12.0769231 C0.874399058,5.97190079 5.81805464,1.02824521 11.9230769,1.02824521 C18.0280992,1.02824521 22.9717548,5.97190079 22.9717548,12.0769231 C22.9717548,18.1819454 18.0280992,23.1256009 11.9230769,23.1256009 Z" id="search---FontAwesome-Copy" fill="#888888" mask="url(#mask-2)"></path>
        </g>
    </g>
</svg>